<mxfile host="app.diagrams.net" modified="2022-05-15T07:19:02.401Z" agent="5.0 (Windows NT 10.0; Win64; x64) AppleWebKit/537.36 (KHTML, like Gecko) Chrome/101.0.4951.67 Safari/537.36" etag="tj2Vw-CqLax5tM1a0UXy" version="18.0.4" type="github">
  <diagram name="Page-1" id="c4acf3e9-155e-7222-9cf6-157b1a14988f">
    <mxGraphModel dx="2523" dy="1038" grid="1" gridSize="12" guides="1" tooltips="1" connect="1" arrows="1" fold="1" page="1" pageScale="1" pageWidth="850" pageHeight="1100" background="none" math="0" shadow="0">
      <root>
        <mxCell id="0" />
        <mxCell id="1" parent="0" />
        <mxCell id="5d2195bd80daf111-18" value="&lt;p style=&quot;margin: 4px 0px 0px; text-align: center; font-size: 22px;&quot;&gt;&lt;i style=&quot;font-size: 22px;&quot;&gt;&amp;lt;&amp;lt;Boundary&amp;gt;&amp;gt;&lt;/i&gt;&lt;br style=&quot;font-size: 22px;&quot;&gt;&lt;b style=&quot;font-size: 22px;&quot;&gt;MocapWidget&lt;/b&gt;&lt;/p&gt;&lt;hr style=&quot;font-size: 22px;&quot;&gt;&lt;p style=&quot;margin: 0px 0px 0px 4px; font-size: 22px;&quot;&gt;&lt;br style=&quot;font-size: 22px;&quot;&gt;&lt;/p&gt;&lt;hr style=&quot;font-size: 22px;&quot;&gt;&lt;p style=&quot;margin: 0px 0px 0px 4px; font-size: 22px;&quot;&gt;&lt;br style=&quot;font-size: 22px;&quot;&gt;&lt;/p&gt;" style="verticalAlign=top;align=left;overflow=fill;fontSize=22;fontFamily=Helvetica;html=1;rounded=0;shadow=0;comic=0;labelBackgroundColor=none;strokeWidth=1" parent="1" vertex="1">
          <mxGeometry x="320" y="132" width="190" height="93" as="geometry" />
        </mxCell>
        <mxCell id="Vf8fJrJ8f5E2zkSzSmOj-4" value="&lt;p style=&quot;margin: 4px 0px 0px; text-align: center; font-size: 22px;&quot;&gt;&lt;i style=&quot;font-size: 22px;&quot;&gt;&amp;lt;&amp;lt;Entity&amp;gt;&amp;gt;&lt;/i&gt;&lt;br style=&quot;font-size: 22px;&quot;&gt;&lt;b style=&quot;font-size: 22px;&quot;&gt;CRTPacket&lt;/b&gt;&lt;br style=&quot;font-size: 22px;&quot;&gt;&lt;/p&gt;&lt;hr style=&quot;font-size: 22px;&quot;&gt;&lt;p style=&quot;margin: 0px 0px 0px 4px; font-size: 22px;&quot;&gt;&lt;br style=&quot;font-size: 22px;&quot;&gt;&lt;/p&gt;&lt;hr style=&quot;font-size: 22px;&quot;&gt;&lt;p style=&quot;margin: 0px 0px 0px 4px; font-size: 22px;&quot;&gt;&lt;br style=&quot;font-size: 22px;&quot;&gt;&lt;/p&gt;" style="verticalAlign=top;align=left;overflow=fill;fontSize=22;fontFamily=Helvetica;html=1;rounded=0;shadow=0;comic=0;labelBackgroundColor=none;strokeWidth=1" vertex="1" parent="1">
          <mxGeometry x="-264" y="576" width="190" height="93" as="geometry" />
        </mxCell>
        <mxCell id="Vf8fJrJ8f5E2zkSzSmOj-6" value="&lt;p style=&quot;margin: 4px 0px 0px; text-align: center; font-size: 22px;&quot;&gt;&lt;i style=&quot;font-size: 22px;&quot;&gt;&amp;lt;&amp;lt;&lt;/i&gt;&lt;i style=&quot;font-size: 22px;&quot;&gt;Control&lt;/i&gt;&lt;i style=&quot;font-size: 22px;&quot;&gt;&amp;gt;&amp;gt;&lt;/i&gt;&lt;br style=&quot;font-size: 22px;&quot;&gt;&lt;b style=&quot;font-size: 22px;&quot;&gt;JsonHandler&lt;/b&gt;&lt;br style=&quot;font-size: 22px;&quot;&gt;&lt;/p&gt;&lt;hr style=&quot;font-size: 22px;&quot;&gt;&lt;p style=&quot;margin: 0px 0px 0px 4px; font-size: 22px;&quot;&gt;&lt;br style=&quot;font-size: 22px;&quot;&gt;&lt;/p&gt;&lt;hr style=&quot;font-size: 22px;&quot;&gt;&lt;p style=&quot;margin: 0px 0px 0px 4px; font-size: 22px;&quot;&gt;&lt;br style=&quot;font-size: 22px;&quot;&gt;&lt;/p&gt;" style="verticalAlign=top;align=left;overflow=fill;fontSize=22;fontFamily=Helvetica;html=1;rounded=0;shadow=0;comic=0;labelBackgroundColor=none;strokeWidth=1" vertex="1" parent="1">
          <mxGeometry x="432" y="417" width="190" height="93" as="geometry" />
        </mxCell>
        <mxCell id="Vf8fJrJ8f5E2zkSzSmOj-8" value="&lt;p style=&quot;margin: 4px 0px 0px; text-align: center; font-size: 22px;&quot;&gt;&lt;i style=&quot;font-size: 22px;&quot;&gt;&amp;lt;&amp;lt;&lt;/i&gt;&lt;i style=&quot;font-size: 22px;&quot;&gt;Control&lt;/i&gt;&lt;i style=&quot;font-size: 22px;&quot;&gt;&amp;gt;&amp;gt;&lt;/i&gt;&lt;br style=&quot;font-size: 22px;&quot;&gt;&lt;b style=&quot;font-size: 22px;&quot;&gt;QSqlQuery&lt;/b&gt;&lt;/p&gt;&lt;hr style=&quot;font-size: 22px;&quot;&gt;&lt;p style=&quot;margin: 0px 0px 0px 4px; font-size: 22px;&quot;&gt;&lt;br style=&quot;font-size: 22px;&quot;&gt;&lt;/p&gt;&lt;hr style=&quot;font-size: 22px;&quot;&gt;&lt;p style=&quot;margin: 0px 0px 0px 4px; font-size: 22px;&quot;&gt;&lt;br style=&quot;font-size: 22px;&quot;&gt;&lt;/p&gt;" style="verticalAlign=top;align=left;overflow=fill;fontSize=22;fontFamily=Helvetica;html=1;rounded=0;shadow=0;comic=0;labelBackgroundColor=none;strokeWidth=1" vertex="1" parent="1">
          <mxGeometry x="228" y="417" width="190" height="93" as="geometry" />
        </mxCell>
        <mxCell id="Vf8fJrJ8f5E2zkSzSmOj-9" value="&lt;p style=&quot;margin: 4px 0px 0px; text-align: center; font-size: 22px;&quot;&gt;&lt;i style=&quot;font-size: 22px;&quot;&gt;&amp;lt;&amp;lt;&lt;/i&gt;&lt;i style=&quot;font-size: 22px;&quot;&gt;Control&lt;/i&gt;&lt;i style=&quot;font-size: 22px;&quot;&gt;&amp;gt;&amp;gt;&lt;/i&gt;&lt;br style=&quot;font-size: 22px;&quot;&gt;&lt;b style=&quot;font-size: 22px;&quot;&gt;GaitAssessment&lt;/b&gt;&lt;/p&gt;&lt;hr style=&quot;font-size: 22px;&quot;&gt;&lt;p style=&quot;margin: 0px 0px 0px 4px; font-size: 22px;&quot;&gt;&lt;br style=&quot;font-size: 22px;&quot;&gt;&lt;/p&gt;&lt;hr style=&quot;font-size: 22px;&quot;&gt;&lt;p style=&quot;margin: 0px 0px 0px 4px; font-size: 22px;&quot;&gt;&lt;br style=&quot;font-size: 22px;&quot;&gt;&lt;/p&gt;" style="verticalAlign=top;align=left;overflow=fill;fontSize=22;fontFamily=Helvetica;html=1;rounded=0;shadow=0;comic=0;labelBackgroundColor=none;strokeWidth=1" vertex="1" parent="1">
          <mxGeometry x="876" y="324" width="190" height="93" as="geometry" />
        </mxCell>
        <mxCell id="Vf8fJrJ8f5E2zkSzSmOj-10" value="&lt;p style=&quot;margin: 4px 0px 0px; text-align: center; font-size: 22px;&quot;&gt;&lt;i style=&quot;font-size: 22px;&quot;&gt;&amp;lt;&amp;lt;&lt;/i&gt;&lt;i style=&quot;font-size: 22px;&quot;&gt;Control&lt;/i&gt;&lt;i style=&quot;font-size: 22px;&quot;&gt;&amp;gt;&amp;gt;&lt;/i&gt;&lt;br style=&quot;font-size: 22px;&quot;&gt;&lt;b style=&quot;font-size: 22px;&quot;&gt;CRTProtocol&lt;/b&gt;&lt;br style=&quot;font-size: 22px;&quot;&gt;&lt;/p&gt;&lt;hr style=&quot;font-size: 22px;&quot;&gt;&lt;p style=&quot;margin: 0px 0px 0px 4px; font-size: 22px;&quot;&gt;&lt;br style=&quot;font-size: 22px;&quot;&gt;&lt;/p&gt;&lt;hr style=&quot;font-size: 22px;&quot;&gt;&lt;p style=&quot;margin: 0px 0px 0px 4px; font-size: 22px;&quot;&gt;&lt;br style=&quot;font-size: 22px;&quot;&gt;&lt;/p&gt;" style="verticalAlign=top;align=left;overflow=fill;fontSize=22;fontFamily=Helvetica;html=1;rounded=0;shadow=0;comic=0;labelBackgroundColor=none;strokeWidth=1" vertex="1" parent="1">
          <mxGeometry x="-264" y="372" width="190" height="93" as="geometry" />
        </mxCell>
        <mxCell id="Vf8fJrJ8f5E2zkSzSmOj-11" value="&lt;p style=&quot;margin: 4px 0px 0px; text-align: center; font-size: 22px;&quot;&gt;&lt;i style=&quot;font-size: 22px;&quot;&gt;&amp;lt;&amp;lt;&lt;/i&gt;&lt;i style=&quot;font-size: 22px;&quot;&gt;Control&lt;/i&gt;&lt;i style=&quot;font-size: 22px;&quot;&gt;&amp;gt;&amp;gt;&lt;/i&gt;&lt;br style=&quot;font-size: 22px;&quot;&gt;&lt;b style=&quot;font-size: 22px;&quot;&gt;TcpServer&lt;/b&gt;&lt;br style=&quot;font-size: 22px;&quot;&gt;&lt;/p&gt;&lt;hr style=&quot;font-size: 22px;&quot;&gt;&lt;p style=&quot;margin: 0px 0px 0px 4px; font-size: 22px;&quot;&gt;&lt;br style=&quot;font-size: 22px;&quot;&gt;&lt;/p&gt;&lt;hr style=&quot;font-size: 22px;&quot;&gt;&lt;p style=&quot;margin: 0px 0px 0px 4px; font-size: 22px;&quot;&gt;&lt;br style=&quot;font-size: 22px;&quot;&gt;&lt;/p&gt;" style="verticalAlign=top;align=left;overflow=fill;fontSize=22;fontFamily=Helvetica;html=1;rounded=0;shadow=0;comic=0;labelBackgroundColor=none;strokeWidth=1" vertex="1" parent="1">
          <mxGeometry x="648" y="324" width="190" height="93" as="geometry" />
        </mxCell>
        <mxCell id="Vf8fJrJ8f5E2zkSzSmOj-13" value="&lt;p style=&quot;margin: 4px 0px 0px; text-align: center; font-size: 22px;&quot;&gt;&lt;i style=&quot;font-size: 22px;&quot;&gt;&amp;lt;&amp;lt;Entity&amp;gt;&amp;gt;&lt;/i&gt;&lt;br style=&quot;font-size: 22px;&quot;&gt;&lt;b style=&quot;font-size: 22px;&quot;&gt;SystemProject&lt;/b&gt;&lt;br style=&quot;font-size: 22px;&quot;&gt;&lt;/p&gt;&lt;hr style=&quot;font-size: 22px;&quot;&gt;&lt;p style=&quot;margin: 0px 0px 0px 4px; font-size: 22px;&quot;&gt;&lt;br style=&quot;font-size: 22px;&quot;&gt;&lt;/p&gt;&lt;hr style=&quot;font-size: 22px;&quot;&gt;&lt;p style=&quot;margin: 0px 0px 0px 4px; font-size: 22px;&quot;&gt;&lt;br style=&quot;font-size: 22px;&quot;&gt;&lt;/p&gt;" style="verticalAlign=top;align=left;overflow=fill;fontSize=22;fontFamily=Helvetica;html=1;rounded=0;shadow=0;comic=0;labelBackgroundColor=none;strokeWidth=1" vertex="1" parent="1">
          <mxGeometry x="-228" y="720" width="190" height="93" as="geometry" />
        </mxCell>
        <mxCell id="Vf8fJrJ8f5E2zkSzSmOj-14" value="&lt;p style=&quot;margin: 4px 0px 0px; text-align: center; font-size: 22px;&quot;&gt;&lt;i style=&quot;font-size: 22px;&quot;&gt;&amp;lt;&amp;lt;Entity&amp;gt;&amp;gt;&lt;/i&gt;&lt;br style=&quot;font-size: 22px;&quot;&gt;&lt;b style=&quot;font-size: 22px;&quot;&gt;Capture&lt;/b&gt;&lt;/p&gt;&lt;hr style=&quot;font-size: 22px;&quot;&gt;&lt;p style=&quot;margin: 0px 0px 0px 4px; font-size: 22px;&quot;&gt;&lt;br style=&quot;font-size: 22px;&quot;&gt;&lt;/p&gt;&lt;hr style=&quot;font-size: 22px;&quot;&gt;&lt;p style=&quot;margin: 0px 0px 0px 4px; font-size: 22px;&quot;&gt;&lt;br style=&quot;font-size: 22px;&quot;&gt;&lt;/p&gt;" style="verticalAlign=top;align=left;overflow=fill;fontSize=22;fontFamily=Helvetica;html=1;rounded=0;shadow=0;comic=0;labelBackgroundColor=none;strokeWidth=1" vertex="1" parent="1">
          <mxGeometry x="60" y="720" width="190" height="93" as="geometry" />
        </mxCell>
        <mxCell id="Vf8fJrJ8f5E2zkSzSmOj-15" value="&lt;p style=&quot;margin: 4px 0px 0px; text-align: center; font-size: 22px;&quot;&gt;&lt;i style=&quot;font-size: 22px;&quot;&gt;&amp;lt;&amp;lt;Entity&amp;gt;&amp;gt;&lt;/i&gt;&lt;br style=&quot;font-size: 22px;&quot;&gt;&lt;b style=&quot;font-size: 22px;&quot;&gt;GaitFile&lt;/b&gt;&lt;/p&gt;&lt;hr style=&quot;font-size: 22px;&quot;&gt;&lt;p style=&quot;margin: 0px 0px 0px 4px; font-size: 22px;&quot;&gt;&lt;br style=&quot;font-size: 22px;&quot;&gt;&lt;/p&gt;&lt;hr style=&quot;font-size: 22px;&quot;&gt;&lt;p style=&quot;margin: 0px 0px 0px 4px; font-size: 22px;&quot;&gt;&lt;br style=&quot;font-size: 22px;&quot;&gt;&lt;/p&gt;" style="verticalAlign=top;align=left;overflow=fill;fontSize=22;fontFamily=Helvetica;html=1;rounded=0;shadow=0;comic=0;labelBackgroundColor=none;strokeWidth=1" vertex="1" parent="1">
          <mxGeometry x="864" y="720" width="190" height="93" as="geometry" />
        </mxCell>
        <mxCell id="Vf8fJrJ8f5E2zkSzSmOj-16" value="&lt;p style=&quot;margin: 4px 0px 0px; text-align: center; font-size: 22px;&quot;&gt;&lt;i style=&quot;font-size: 22px;&quot;&gt;&amp;lt;&amp;lt;Entity&amp;gt;&amp;gt;&lt;/i&gt;&lt;br style=&quot;font-size: 22px;&quot;&gt;&lt;b style=&quot;font-size: 22px;&quot;&gt;SensorSettings&lt;/b&gt;&lt;br style=&quot;font-size: 22px;&quot;&gt;&lt;/p&gt;&lt;hr style=&quot;font-size: 22px;&quot;&gt;&lt;p style=&quot;margin: 0px 0px 0px 4px; font-size: 22px;&quot;&gt;&lt;br style=&quot;font-size: 22px;&quot;&gt;&lt;/p&gt;&lt;hr style=&quot;font-size: 22px;&quot;&gt;&lt;p style=&quot;margin: 0px 0px 0px 4px; font-size: 22px;&quot;&gt;&lt;br style=&quot;font-size: 22px;&quot;&gt;&lt;/p&gt;" style="verticalAlign=top;align=left;overflow=fill;fontSize=22;fontFamily=Helvetica;html=1;rounded=0;shadow=0;comic=0;labelBackgroundColor=none;strokeWidth=1" vertex="1" parent="1">
          <mxGeometry x="24" y="576" width="190" height="93" as="geometry" />
        </mxCell>
        <mxCell id="Vf8fJrJ8f5E2zkSzSmOj-18" value="" style="endArrow=classic;html=1;rounded=0;fontSize=22;entryX=0.5;entryY=0;entryDx=0;entryDy=0;" edge="1" parent="1" target="Vf8fJrJ8f5E2zkSzSmOj-10">
          <mxGeometry width="50" height="50" relative="1" as="geometry">
            <mxPoint x="336" y="228" as="sourcePoint" />
            <mxPoint x="415" y="288" as="targetPoint" />
          </mxGeometry>
        </mxCell>
        <mxCell id="Vf8fJrJ8f5E2zkSzSmOj-22" value="" style="endArrow=classic;html=1;rounded=0;fontSize=22;entryX=0.5;entryY=0;entryDx=0;entryDy=0;" edge="1" parent="1" target="Vf8fJrJ8f5E2zkSzSmOj-4">
          <mxGeometry width="50" height="50" relative="1" as="geometry">
            <mxPoint x="-169" y="468" as="sourcePoint" />
            <mxPoint x="14" y="432" as="targetPoint" />
          </mxGeometry>
        </mxCell>
        <mxCell id="Vf8fJrJ8f5E2zkSzSmOj-23" value="" style="endArrow=classic;html=1;rounded=0;fontSize=22;entryX=0.658;entryY=-0.022;entryDx=0;entryDy=0;entryPerimeter=0;exitX=0.147;exitY=1.032;exitDx=0;exitDy=0;exitPerimeter=0;" edge="1" parent="1" source="5d2195bd80daf111-18" target="Vf8fJrJ8f5E2zkSzSmOj-13">
          <mxGeometry width="50" height="50" relative="1" as="geometry">
            <mxPoint x="360" y="252" as="sourcePoint" />
            <mxPoint x="-157" y="564" as="targetPoint" />
          </mxGeometry>
        </mxCell>
        <mxCell id="Vf8fJrJ8f5E2zkSzSmOj-25" value="" style="endArrow=classic;html=1;rounded=0;fontSize=22;entryX=0.868;entryY=-0.011;entryDx=0;entryDy=0;entryPerimeter=0;" edge="1" parent="1" target="Vf8fJrJ8f5E2zkSzSmOj-14">
          <mxGeometry width="50" height="50" relative="1" as="geometry">
            <mxPoint x="360" y="228" as="sourcePoint" />
            <mxPoint x="23.999999999999986" y="716.934" as="targetPoint" />
          </mxGeometry>
        </mxCell>
        <mxCell id="Vf8fJrJ8f5E2zkSzSmOj-26" value="" style="endArrow=classic;html=1;rounded=0;fontSize=22;" edge="1" parent="1" target="Vf8fJrJ8f5E2zkSzSmOj-16">
          <mxGeometry width="50" height="50" relative="1" as="geometry">
            <mxPoint x="360" y="228" as="sourcePoint" />
            <mxPoint x="163.44000000000005" y="719.9970000000001" as="targetPoint" />
          </mxGeometry>
        </mxCell>
        <mxCell id="Vf8fJrJ8f5E2zkSzSmOj-27" value="" style="endArrow=classic;html=1;rounded=0;fontSize=22;exitX=0;exitY=0.5;exitDx=0;exitDy=0;entryX=1;entryY=0.5;entryDx=0;entryDy=0;" edge="1" parent="1" source="Vf8fJrJ8f5E2zkSzSmOj-14" target="Vf8fJrJ8f5E2zkSzSmOj-13">
          <mxGeometry width="50" height="50" relative="1" as="geometry">
            <mxPoint x="-12" y="782" as="sourcePoint" />
            <mxPoint x="38" y="732" as="targetPoint" />
          </mxGeometry>
        </mxCell>
        <mxCell id="Vf8fJrJ8f5E2zkSzSmOj-28" value="" style="endArrow=classic;html=1;rounded=0;fontSize=22;exitX=0.5;exitY=0;exitDx=0;exitDy=0;entryX=0.5;entryY=1;entryDx=0;entryDy=0;" edge="1" parent="1" source="Vf8fJrJ8f5E2zkSzSmOj-14" target="Vf8fJrJ8f5E2zkSzSmOj-16">
          <mxGeometry width="50" height="50" relative="1" as="geometry">
            <mxPoint x="134" y="708" as="sourcePoint" />
            <mxPoint x="36" y="708" as="targetPoint" />
          </mxGeometry>
        </mxCell>
        <mxCell id="Vf8fJrJ8f5E2zkSzSmOj-31" value="" style="endArrow=classic;html=1;rounded=0;fontSize=22;exitX=0.5;exitY=1;exitDx=0;exitDy=0;entryX=1;entryY=0.5;entryDx=0;entryDy=0;" edge="1" parent="1" source="Vf8fJrJ8f5E2zkSzSmOj-8" target="Vf8fJrJ8f5E2zkSzSmOj-14">
          <mxGeometry width="50" height="50" relative="1" as="geometry">
            <mxPoint x="360.5" y="552.75" as="sourcePoint" />
            <mxPoint x="469.5" y="606" as="targetPoint" />
          </mxGeometry>
        </mxCell>
        <mxCell id="Vf8fJrJ8f5E2zkSzSmOj-32" value="" style="endArrow=classic;html=1;rounded=0;fontSize=22;exitX=0.5;exitY=1;exitDx=0;exitDy=0;entryX=0.5;entryY=0;entryDx=0;entryDy=0;" edge="1" parent="1" source="5d2195bd80daf111-18" target="Vf8fJrJ8f5E2zkSzSmOj-11">
          <mxGeometry width="50" height="50" relative="1" as="geometry">
            <mxPoint x="463.99999999999955" y="252" as="sourcePoint" />
            <mxPoint x="228" y="351" as="targetPoint" />
          </mxGeometry>
        </mxCell>
        <mxCell id="Vf8fJrJ8f5E2zkSzSmOj-33" value="" style="endArrow=classic;html=1;rounded=0;fontSize=22;entryX=0.5;entryY=0;entryDx=0;entryDy=0;" edge="1" parent="1" target="Vf8fJrJ8f5E2zkSzSmOj-9">
          <mxGeometry width="50" height="50" relative="1" as="geometry">
            <mxPoint x="420" y="228" as="sourcePoint" />
            <mxPoint x="695" y="336" as="targetPoint" />
          </mxGeometry>
        </mxCell>
        <mxCell id="Vf8fJrJ8f5E2zkSzSmOj-34" value="" style="endArrow=classic;html=1;rounded=0;fontSize=22;exitX=0.5;exitY=1;exitDx=0;exitDy=0;entryX=0.551;entryY=0.022;entryDx=0;entryDy=0;entryPerimeter=0;" edge="1" parent="1" source="Vf8fJrJ8f5E2zkSzSmOj-9" target="Vf8fJrJ8f5E2zkSzSmOj-15">
          <mxGeometry width="50" height="50" relative="1" as="geometry">
            <mxPoint x="888" y="578" as="sourcePoint" />
            <mxPoint x="938" y="528" as="targetPoint" />
          </mxGeometry>
        </mxCell>
        <mxCell id="Vf8fJrJ8f5E2zkSzSmOj-36" value="" style="endArrow=classic;html=1;rounded=0;fontSize=22;entryX=0.574;entryY=0.009;entryDx=0;entryDy=0;entryPerimeter=0;" edge="1" parent="1" target="Vf8fJrJ8f5E2zkSzSmOj-8">
          <mxGeometry width="50" height="50" relative="1" as="geometry">
            <mxPoint x="385" y="228" as="sourcePoint" />
            <mxPoint x="-120" y="372" as="targetPoint" />
          </mxGeometry>
        </mxCell>
        <mxCell id="Vf8fJrJ8f5E2zkSzSmOj-37" value="" style="endArrow=classic;html=1;rounded=0;fontSize=22;entryX=0.25;entryY=0;entryDx=0;entryDy=0;" edge="1" parent="1" target="Vf8fJrJ8f5E2zkSzSmOj-6">
          <mxGeometry width="50" height="50" relative="1" as="geometry">
            <mxPoint x="408.9699999999996" y="227.16" as="sourcePoint" />
            <mxPoint x="421.03" y="446.997" as="targetPoint" />
          </mxGeometry>
        </mxCell>
      </root>
    </mxGraphModel>
  </diagram>
</mxfile>
